<?xml version="1.0" encoding="utf-8"?>
<!-- Generator: Adobe Illustrator 24.0.1, SVG Export Plug-In . SVG Version: 6.00 Build 0)  -->
<svg version="1.1" id="Layer_1" xmlns="http://www.w3.org/2000/svg" xmlns:xlink="http://www.w3.org/1999/xlink" x="0px" y="0px"
	 viewBox="0 0 354.8 160" style="enable-background:new 0 0 354.8 160;" xml:space="preserve">
<style type="text/css">
	.st0{fill:#0B3553;}
	.st1{fill:url(#SVGID_1_);}
	.st2{fill:#E0C900;}
</style>
<g id="BACKGROUND">
</g>
<g>
	<path class="st0" d="M115,153.4c-3.6,0-7-0.4-10.2-1.1s-6-1.9-8.3-3.3l3.5-9.4c1.3-3.5,5-5.6,8.7-4.9c1.2,0.2,2.5,0.3,3.9,0.3
		c2.9,0,5.2-1,6.9-2.9c1.7-1.9,2.6-4.8,2.6-8.7V54.9c0-6.3,5.1-11.3,11.3-11.3h11.8v79.7c0,9.2-2.6,16.5-7.9,22
		C132,150.7,124.6,153.4,115,153.4z"/>
	<path class="st0" d="M204.5,124.6c-8.5,0-16.1-1.8-22.6-5.3c-6.6-3.6-11.8-8.4-15.6-14.6s-5.7-13.2-5.7-21.1c0-8,1.9-15.1,5.7-21.3
		s9-11,15.6-14.5s14.1-5.3,22.6-5.3c8.4,0,15.9,1.8,22.6,5.3c6.6,3.5,11.8,8.3,15.6,14.5c3.8,6.1,5.6,13.3,5.6,21.4
		c0,7.9-1.9,15-5.6,21.1c-3.8,6.2-9,11.1-15.6,14.6C220.4,122.8,212.9,124.6,204.5,124.6z M204.5,105.6c3.9,0,7.3-0.9,10.4-2.7
		c3.1-1.8,5.5-4.3,7.3-7.6c1.8-3.3,2.7-7.2,2.7-11.8c0-4.6-0.9-8.6-2.7-11.9s-4.2-5.8-7.3-7.6c-3.1-1.8-6.5-2.7-10.4-2.7
		s-7.3,0.9-10.4,2.7c-3.1,1.8-5.5,4.3-7.3,7.6c-1.8,3.3-2.7,7.2-2.7,11.9c0,4.6,0.9,8.5,2.7,11.8s4.3,5.9,7.3,7.6
		C197.2,104.7,200.7,105.6,204.5,105.6z"/>
	<path class="st0" d="M271.6,153.4c-4.2,0-8.3-0.6-12.3-1.9c-4.1-1.3-7.4-3.1-9.9-5.3l4.7-9.2c1.8-3.6,6.1-5,9.8-3.6h0.1
		c2.3,0.9,4.6,1.3,6.9,1.3c3.3,0,5.9-0.8,7.8-2.3s3.7-4.1,5.3-7.6l4.2-9.8l1.8-2.5l25.7-61.9c1.8-4.2,5.9-7,10.5-7h14.7l-36.1,84.7
		c-2.6,6.4-5.5,11.5-8.8,15.1c-3.3,3.7-7,6.2-11,7.7C280.9,152.6,276.4,153.4,271.6,153.4z M285.2,126.5l-35.6-83h18.2
		c3.4,0,6.5,2.1,7.9,5.3l25.4,61.5L285.2,126.5z"/>
</g>
<image style="overflow:visible;enable-background:new    ;" width="827" height="826" xlink:href="AC506515.jpg"  transform="matrix(0.9994 0 0 0.9994 2655.0764 -412.7501)">
</image>
<path class="st0" d="M111.9,91.1"/>
<g>
	
		<radialGradient id="SVGID_1_" cx="53.5535" cy="137.4898" r="21.1782" gradientTransform="matrix(1 0 0 -1 0 159.8898)" gradientUnits="userSpaceOnUse">
		<stop  offset="0" style="stop-color:#E0C900"/>
		<stop  offset="1" style="stop-color:#0B3553"/>
	</radialGradient>
	<circle class="st1" cx="53.6" cy="22.4" r="21.2"/>
	<path class="st0" d="M101,26.7c0,0,18.3,25.9-24.2,50.5c-40.4,23.4-26.9,80.3-26.9,80.3s-32.7-77,14-101.3
		C108.9,35.4,101,26.7,101,26.7z"/>
	<path class="st2" d="M6.9,26.7c0,0-18.3,25.9,24.2,50.5C71.5,100.6,58,157.5,58,157.5s32.6-77-14.1-101.3
		C-1.1,35.4,6.9,26.7,6.9,26.7z"/>
</g>
</svg>
