<?xml version="1.0" encoding="utf-8"?>
<!-- Generator: Adobe Illustrator 24.0.1, SVG Export Plug-In . SVG Version: 6.00 Build 0)  -->
<svg version="1.1" id="Layer_1" xmlns="http://www.w3.org/2000/svg" xmlns:xlink="http://www.w3.org/1999/xlink" x="0px" y="0px"
	 viewBox="0 0 624.1 160" style="enable-background:new 0 0 624.1 160;" xml:space="preserve">
<style type="text/css">
	.st0{fill:url(#SVGID_1_);}
	.st1{fill:#0B3553;}
	.st2{fill:#E0C900;}
</style>
<g id="BACKGROUND">
</g>
<g>
	
		<radialGradient id="SVGID_1_" cx="662.15" cy="948.2726" r="15.9153" gradientTransform="matrix(1 0 0 1 0 -682)" gradientUnits="userSpaceOnUse">
		<stop  offset="0" style="stop-color:#E0C900"/>
		<stop  offset="1" style="stop-color:#0B3553"/>
	</radialGradient>
	<circle class="st0" cx="662.2" cy="266.3" r="15.9"/>
	<path class="st1" d="M697.8,269.5c0,0,13.8,19.5-18.2,38c-30.4,17.6-20.2,60.3-20.2,60.3s-24.6-57.9,10.5-76.1
		C703.7,276,697.8,269.5,697.8,269.5z"/>
	<path class="st2" d="M627.1,269.5c0,0-13.8,19.5,18.2,38c30.4,17.6,20.2,60.3,20.2,60.3s24.5-57.9-10.6-76.1
		C621.1,276,627.1,269.5,627.1,269.5z"/>
</g>
<g>
	<path class="st2" d="M30.6,445.7c-3.2,0-6.2-0.3-9-1c-2.9-0.7-5.3-1.7-7.3-3.2l4.9-12.6c2.6,1.9,5.9,2.9,9.9,2.9
		c3.1,0,5.5-1,7.2-2.9c1.7-1.9,2.6-4.8,2.6-8.6v-74.3h17v73.9c0,8-2.2,14.3-6.6,19C44.9,443.4,38.7,445.7,30.6,445.7z M47.3,337
		c-4.1,0-7.5-1.3-10.2-3.9c-2.7-2.6-4-5.7-4-9.4c0-3.8,1.3-7,4-9.5c2.7-2.5,6.1-3.8,10.2-3.8c4.1,0,7.5,1.2,10.2,3.6
		c2.7,2.4,4,5.5,4,9.1c0,3.9-1.3,7.2-3.9,9.9C55,335.7,51.6,337,47.3,337z"/>
	<path class="st2" d="M110.8,419.4c-7.4,0-14-1.6-19.8-4.8c-5.8-3.2-10.4-7.6-13.7-13.3c-3.4-5.6-5-12-5-19.2c0-7.2,1.7-13.7,5-19.2
		c3.4-5.6,7.9-9.9,13.7-13.1c5.8-3.2,12.4-4.8,19.8-4.8c7.5,0,14.2,1.6,20,4.8c5.8,3.2,10.4,7.5,13.7,13c3.3,5.5,5,12,5,19.3
		c0,7.2-1.7,13.5-5,19.2c-3.3,5.6-7.9,10-13.7,13.3C125,417.8,118.3,419.4,110.8,419.4z M110.8,404.8c4.2,0,7.9-0.9,11.1-2.7
		c3.3-1.8,5.8-4.4,7.7-7.9c1.9-3.4,2.8-7.5,2.8-12.1c0-4.7-0.9-8.8-2.8-12.2c-1.9-3.4-4.4-6-7.7-7.8c-3.3-1.8-6.9-2.7-11-2.7
		c-4.2,0-7.9,0.9-11.1,2.7c-3.2,1.8-5.8,4.4-7.7,7.8c-1.9,3.4-2.9,7.5-2.9,12.2c0,4.6,1,8.7,2.9,12.1c1.9,3.4,4.5,6.1,7.7,7.9
		C103.1,403.9,106.7,404.8,110.8,404.8z"/>
	<path class="st2" d="M169.8,445.7c-3.5,0-7.1-0.6-10.6-1.8c-3.5-1.2-6.5-2.8-8.8-4.9l6.8-12.5c1.7,1.5,3.7,2.8,5.8,3.7
		c2.2,0.9,4.4,1.4,6.7,1.4c3.1,0,5.6-0.8,7.5-2.3c1.9-1.5,3.7-4.1,5.3-7.7l4.2-9.5l1.4-2l27.5-64.1h16.3l-34,78.4
		c-2.3,5.4-4.8,9.7-7.5,12.9c-2.8,3.2-5.8,5.4-9.2,6.7C177.6,445.1,173.8,445.7,169.8,445.7z M184.7,421L152,345.8h17.7l26.6,62.6
		L184.7,421z"/>
	<path class="st1" d="M278,419.4c-7.4,0-14-1.6-19.8-4.8c-5.8-3.2-10.4-7.6-13.7-13.3c-3.4-5.6-5-12-5-19.2c0-7.2,1.7-13.7,5-19.2
		c3.4-5.6,7.9-9.9,13.7-13.1c5.8-3.2,12.4-4.8,19.8-4.8c7.5,0,14.2,1.6,20,4.8c5.8,3.2,10.4,7.5,13.7,13c3.3,5.5,5,12,5,19.3
		c0,7.2-1.7,13.5-5,19.2c-3.3,5.6-7.9,10-13.7,13.3C292.2,417.8,285.5,419.4,278,419.4z M278,404.8c4.2,0,7.9-0.9,11.1-2.7
		c3.3-1.8,5.8-4.4,7.7-7.9c1.9-3.4,2.8-7.5,2.8-12.1c0-4.7-0.9-8.8-2.8-12.2c-1.9-3.4-4.4-6-7.7-7.8c-3.3-1.8-6.9-2.7-11-2.7
		c-4.2,0-7.9,0.9-11.1,2.7c-3.2,1.8-5.8,4.4-7.7,7.8c-1.9,3.4-2.9,7.5-2.9,12.2c0,4.6,1,8.7,2.9,12.1c1.9,3.4,4.5,6.1,7.7,7.9
		C270.3,403.9,273.9,404.8,278,404.8z"/>
	<path class="st1" d="M358.7,419.4c-6.2,0-11.6-1.2-16.3-3.5c-4.7-2.3-8.4-5.8-11-10.6c-2.6-4.8-3.9-10.8-3.9-18v-41.4h17V385
		c0,6.5,1.5,11.4,4.4,14.6c2.9,3.2,7.1,4.8,12.6,4.8c4,0,7.5-0.8,10.4-2.4c2.9-1.6,5.3-4.1,6.9-7.3c1.7-3.3,2.5-7.3,2.5-12.1v-36.7
		h17v72.6H382v-19.6l2.9,6c-2.4,4.7-6,8.3-10.7,10.8C369.4,418.1,364.3,419.4,358.7,419.4z"/>
	<path class="st1" d="M410.8,360v-13.6h48.4V360H410.8z M447.8,419.4c-8,0-14.1-2.1-18.5-6.2c-4.3-4.1-6.5-10.2-6.5-18.3v-65.1h17
		v64.7c0,3.4,0.9,6.1,2.6,8c1.8,1.9,4.2,2.9,7.4,2.9c3.8,0,7-1,9.5-3l4.8,12.1c-2,1.6-4.4,2.9-7.3,3.7
		C453.9,419,450.9,419.4,447.8,419.4z"/>
	<path class="st1" d="M466.7,360v-13.6h48.4V360H466.7z M478.7,418.4v-76.6c0-7.6,2.2-13.7,6.7-18.3c4.5-4.6,10.9-6.9,19.2-6.9
		c3,0,5.8,0.3,8.5,1c2.7,0.6,4.9,1.6,6.7,3l-4.6,12.8c-1.3-1-2.7-1.7-4.3-2.2c-1.6-0.5-3.3-0.7-5-0.7c-3.5,0-6.2,1-8,2.9
		c-1.8,1.9-2.7,4.9-2.7,8.8v8.2l0.5,7.6v60.6H478.7z M535.6,333.9c-3.2,0-5.8-1-7.8-3c-2-2-3.1-4.4-3.1-7.2c0-2.9,1-5.3,3.1-7.3
		c2-1.9,4.6-2.9,7.8-2.9c3.2,0,5.8,0.9,7.8,2.8c2,1.9,3.1,4.2,3.1,7c0,3-1,5.5-3,7.5C541.5,332.9,538.9,333.9,535.6,333.9z
		 M527,418.4v-72.6h17v72.6H527z"/>
	<path class="st1" d="M556.7,360v-13.6H605V360H556.7z M593.6,419.4c-8,0-14.1-2.1-18.5-6.2c-4.3-4.1-6.5-10.2-6.5-18.3v-65.1h17
		v64.7c0,3.4,0.9,6.1,2.6,8c1.8,1.9,4.2,2.9,7.4,2.9c3.8,0,7-1,9.5-3l4.8,12.1c-2,1.6-4.4,2.9-7.3,3.7
		C599.7,419,596.7,419.4,593.6,419.4z"/>
</g>
<text transform="matrix(1 0 0 1 26.9358 -104.6226)"><tspan x="0" y="0" class="st2" style="font-family:'Montserrat-SemiBold'; font-size:135.8972px;">joy</tspan><tspan x="206.3" y="0" class="st1" style="font-family:'Montserrat-SemiBold'; font-size:135.8972px;">outft</tspan></text>
<g>
	<path class="st2" d="M22.8,148.2c-3.3,0-6.4-0.3-9.4-1c-3-0.7-5.5-1.7-7.6-3.1l5.7-15.4c2.4,1.7,5.4,2.6,9,2.6
		c2.6,0,4.7-0.9,6.3-2.6c1.6-1.8,2.4-4.4,2.4-8V47.7h21.2v73c0,8.4-2.4,15.1-7.2,20.1C38.4,145.7,31.6,148.2,22.8,148.2z M39.8,37.5
		c-3.9,0-7.1-1.1-9.5-3.4c-2.4-2.3-3.7-5.1-3.7-8.4c0-3.4,1.2-6.2,3.7-8.4c2.4-2.3,5.6-3.4,9.5-3.4c3.9,0,7.1,1.1,9.5,3.2
		c2.4,2.1,3.7,4.9,3.7,8.2c0,3.5-1.2,6.5-3.6,8.8C46.9,36.3,43.8,37.5,39.8,37.5z"/>
	<path class="st2" d="M104.7,121.9c-7.8,0-14.7-1.6-20.7-4.9c-6-3.3-10.8-7.7-14.3-13.4c-3.5-5.7-5.2-12.1-5.2-19.4
		c0-7.3,1.7-13.8,5.2-19.5C73.2,59,78,54.6,84,51.4c6-3.2,12.9-4.8,20.7-4.8c7.7,0,14.6,1.6,20.7,4.8c6.1,3.2,10.8,7.6,14.3,13.3
		c3.4,5.6,5.2,12.1,5.2,19.6c0,7.3-1.7,13.7-5.2,19.4c-3.4,5.7-8.2,10.1-14.3,13.4C119.3,120.2,112.4,121.9,104.7,121.9z
		 M104.7,104.5c3.5,0,6.7-0.8,9.5-2.4c2.8-1.6,5-4,6.7-7c1.6-3,2.4-6.6,2.4-10.8c0-4.3-0.8-7.9-2.4-10.9s-3.9-5.3-6.7-6.9
		c-2.8-1.6-6-2.4-9.5-2.4s-6.7,0.8-9.5,2.4c-2.8,1.6-5.1,3.9-6.7,6.9c-1.7,3-2.5,6.6-2.5,10.9c0,4.2,0.8,7.8,2.5,10.8
		c1.7,3,3.9,5.4,6.7,7C98,103.6,101.2,104.5,104.7,104.5z"/>
	<path class="st2" d="M166.2,148.2c-3.8,0-7.6-0.6-11.3-1.8c-3.7-1.2-6.8-2.8-9.1-4.9l7.7-15.1c1.6,1.4,3.5,2.6,5.6,3.4
		c2.1,0.8,4.2,1.2,6.3,1.2c3,0,5.4-0.7,7.1-2.1c1.8-1.4,3.4-3.7,4.8-7l3.8-9l1.6-2.3l26.2-63.1h20.4l-33,77.6
		c-2.4,5.9-5.1,10.5-8.1,13.9c-3,3.4-6.4,5.7-10.1,7.1C174.6,147.5,170.6,148.2,166.2,148.2z M178.7,123.6l-32.6-76h21.9l25.3,61.2
		L178.7,123.6z"/>
	<path class="st1" d="M270.9,121.9c-7.8,0-14.7-1.6-20.7-4.9c-6-3.3-10.8-7.7-14.3-13.4c-3.5-5.7-5.2-12.1-5.2-19.4
		c0-7.3,1.7-13.8,5.2-19.5c3.5-5.7,8.2-10.1,14.3-13.3c6-3.2,12.9-4.8,20.7-4.8c7.7,0,14.6,1.6,20.7,4.8c6.1,3.2,10.8,7.6,14.3,13.3
		c3.4,5.6,5.2,12.1,5.2,19.6c0,7.3-1.7,13.7-5.2,19.4c-3.4,5.7-8.2,10.1-14.3,13.4C285.5,120.2,278.6,121.9,270.9,121.9z
		 M270.9,104.5c3.5,0,6.7-0.8,9.5-2.4c2.8-1.6,5-4,6.7-7c1.6-3,2.4-6.6,2.4-10.8c0-4.3-0.8-7.9-2.4-10.9s-3.9-5.3-6.7-6.9
		c-2.8-1.6-6-2.4-9.5-2.4s-6.7,0.8-9.5,2.4c-2.8,1.6-5.1,3.9-6.7,6.9c-1.7,3-2.5,6.6-2.5,10.9c0,4.2,0.8,7.8,2.5,10.8
		c1.7,3,3.9,5.4,6.7,7C264.2,103.6,267.4,104.5,270.9,104.5z"/>
	<path class="st1" d="M356,121.9c-6.1,0-11.5-1.2-16.2-3.5c-4.8-2.4-8.4-6-11.1-10.8c-2.6-4.8-3.9-11-3.9-18.5V47.7h21.2v38.2
		c0,6.1,1.3,10.5,3.9,13.4c2.6,2.9,6.2,4.3,10.9,4.3c3.3,0,6.2-0.7,8.7-2.1c2.5-1.4,4.5-3.6,6-6.5c1.4-2.9,2.2-6.6,2.2-11.1V47.7
		h21.2v73.1h-20.1v-20.1l3.7,5.8c-2.4,5.1-6,8.9-10.8,11.5C366.8,120.6,361.6,121.9,356,121.9z"/>
	<path class="st1" d="M409.8,65.6V49.3h50.7v16.3H409.8z M448.4,121.9c-8.6,0-15.3-2.2-20.1-6.6c-4.8-4.4-7.2-10.9-7.2-19.6V31.5
		h21.2v63.9c0,3.1,0.8,5.5,2.4,7.1c1.6,1.7,3.8,2.5,6.7,2.5c3.4,0,6.2-0.9,8.6-2.7l5.7,14.9c-2.2,1.5-4.8,2.7-7.8,3.5
		C454.8,121.5,451.7,121.9,448.4,121.9z"/>
	<path class="st1" d="M467.3,65.6V49.3H518v16.3H467.3z M478.6,120.8V46c0-8.2,2.4-14.8,7.3-19.8c4.9-4.9,11.9-7.4,20.9-7.4
		c3.1,0,6,0.3,8.9,1c2.9,0.6,5.3,1.6,7.3,3l-5.6,15.4c-1.2-0.8-2.5-1.4-3.9-1.9c-1.5-0.5-3-0.7-4.6-0.7c-3.1,0-5.5,0.9-7.1,2.6
		c-1.7,1.8-2.5,4.4-2.5,8V53l0.5,9.1v58.7H478.6z M540.5,37.5c-3.9,0-7.1-1.1-9.5-3.4c-2.4-2.3-3.7-5.1-3.7-8.4
		c0-3.4,1.2-6.2,3.7-8.4c2.4-2.3,5.6-3.4,9.5-3.4c3.9,0,7.1,1.1,9.5,3.2c2.4,2.1,3.7,4.9,3.7,8.2c0,3.5-1.2,6.5-3.6,8.8
		C547.7,36.3,544.5,37.5,540.5,37.5z M529.9,120.8V47.7h21.2v73.1H529.9z"/>
	<path class="st1" d="M562,65.6V49.3h50.7v16.3H562z M600.6,121.9c-8.6,0-15.3-2.2-20.1-6.6c-4.8-4.4-7.2-10.9-7.2-19.6V31.5h21.2
		v63.9c0,3.1,0.8,5.5,2.4,7.1c1.6,1.7,3.8,2.5,6.7,2.5c3.4,0,6.2-0.9,8.6-2.7l5.7,14.9c-2.2,1.5-4.8,2.7-7.8,3.5
		C607,121.5,603.9,121.9,600.6,121.9z"/>
</g>
</svg>
